<svg width="32" height="29" viewBox="0 0 32 29" fill="none" xmlns="http://www.w3.org/2000/svg">
<path d="M28 7.22583C23.56 6.82708 19.0933 6.62166 14.64 6.62166C12 6.62166 9.36 6.7425 6.72 6.98416L4 7.22583M11.3333 6.00541L11.6267 4.4225C11.84 3.27458 12 2.41666 14.2533 2.41666H17.7467C20 2.41666 20.1733 3.32291 20.3733 4.43458L20.6667 6.00541M25.1333 11.0442L24.2667 23.2121C24.12 25.1092 24 26.5833 20.28 26.5833H11.72C8 26.5833 7.88 25.1092 7.73333 23.2121L6.86667 11.0442M13.7733 19.9375H18.2133M12.6667 15.1042H19.3333" stroke="black" stroke-width="1.5" stroke-linecap="round" stroke-linejoin="round"/>
</svg>
